<svg xmlns="http://www.w3.org/2000/svg" viewBox="0 0 100 100">
  <ellipse cx="50" cy="62" rx="28" ry="25" fill="#f39c12"/>
  <circle cx="50" cy="40" r="22" fill="#f1c40f"/>
  <polygon points="32,25 28,5 42,18" fill="#f1c40f"/>
  <polygon points="68,25 72,5 58,18" fill="#f1c40f"/>
  <polygon points="32,25 28,5 42,18" fill="#f39c12" opacity="0.3"/>
  <polygon points="68,25 72,5 58,18" fill="#f39c12" opacity="0.3"/>
  <circle cx="42" cy="37" r="4" fill="#2c3e50"/>
  <circle cx="58" cy="37" r="4" fill="#2c3e50"/>
  <circle cx="43" cy="36" r="1.5" fill="white"/>
  <circle cx="59" cy="36" r="1.5" fill="white"/>
  <ellipse cx="50" cy="45" rx="3" ry="2" fill="#e74c3c"/>
  <path d="M47 48 Q50 52 53 48" stroke="#2c3e50" stroke-width="1.5" fill="none"/>
  <line x1="30" y1="42" x2="15" y2="38" stroke="#2c3e50" stroke-width="1"/>
  <line x1="30" y1="45" x2="15" y2="45" stroke="#2c3e50" stroke-width="1"/>
  <line x1="70" y1="42" x2="85" y2="38" stroke="#2c3e50" stroke-width="1"/>
  <line x1="70" y1="45" x2="85" y2="45" stroke="#2c3e50" stroke-width="1"/>
</svg>